<?xml version="1.0" encoding="UTF-8"?>
<svg xmlns="http://www.w3.org/2000/svg" xmlns:xlink="http://www.w3.org/1999/xlink" width="16px" height="16px" viewBox="0 0 16 16" version="1.1">
<g id="surface1">
<path style=" stroke:none;fill-rule:evenodd;fill:rgb(100%,100%,100%);fill-opacity:1;" d="M 7.214844 2.160156 C 7.214844 2.167969 7.203125 2.175781 7.1875 2.175781 C 7.0625 2.175781 7.007812 2.328125 7.007812 2.679688 C 7.007812 2.996094 7.050781 3.136719 7.152344 3.136719 C 7.160156 3.136719 7.167969 3.144531 7.167969 3.152344 C 7.167969 3.160156 7.191406 3.167969 7.214844 3.167969 C 7.242188 3.167969 7.265625 3.175781 7.265625 3.183594 C 7.265625 3.191406 7.308594 3.199219 7.367188 3.199219 C 7.421875 3.199219 7.472656 3.191406 7.480469 3.183594 C 7.484375 3.175781 7.507812 3.167969 7.527344 3.167969 C 7.550781 3.167969 7.566406 3.160156 7.566406 3.152344 C 7.566406 3.144531 7.578125 3.136719 7.589844 3.136719 C 7.601562 3.136719 7.621094 3.121094 7.632812 3.101562 C 7.644531 3.082031 7.664062 3.058594 7.675781 3.046875 C 7.6875 3.035156 7.695312 3.011719 7.695312 2.992188 C 7.695312 2.976562 7.703125 2.957031 7.710938 2.953125 C 7.722656 2.945312 7.726562 2.832031 7.726562 2.664062 C 7.726562 2.488281 7.722656 2.382812 7.710938 2.382812 C 7.703125 2.382812 7.695312 2.371094 7.695312 2.351562 C 7.695312 2.332031 7.6875 2.308594 7.675781 2.292969 C 7.609375 2.210938 7.570312 2.175781 7.546875 2.175781 C 7.53125 2.175781 7.519531 2.167969 7.519531 2.160156 C 7.519531 2.152344 7.457031 2.144531 7.367188 2.144531 C 7.277344 2.144531 7.214844 2.152344 7.214844 2.160156 M 3.972656 3.191406 C 3.945312 3.199219 3.921875 3.210938 3.921875 3.21875 C 3.921875 3.226562 3.910156 3.230469 3.894531 3.230469 C 3.882812 3.230469 3.851562 3.25 3.832031 3.269531 C 3.808594 3.292969 3.792969 3.320312 3.792969 3.335938 C 3.792969 3.347656 3.785156 3.359375 3.777344 3.359375 C 3.769531 3.359375 3.757812 3.382812 3.753906 3.410156 C 3.75 3.441406 3.742188 3.484375 3.734375 3.507812 C 3.722656 3.558594 3.765625 3.714844 3.800781 3.75 C 3.8125 3.761719 3.824219 3.78125 3.824219 3.789062 C 3.824219 3.796875 3.84375 3.824219 3.871094 3.851562 C 3.898438 3.882812 3.921875 3.910156 3.921875 3.917969 C 3.921875 3.925781 3.941406 3.953125 3.964844 3.976562 C 3.988281 4.003906 4.015625 4.039062 4.019531 4.054688 C 4.027344 4.066406 4.050781 4.089844 4.070312 4.097656 C 4.09375 4.109375 4.113281 4.125 4.113281 4.128906 C 4.113281 4.136719 4.132812 4.144531 4.160156 4.144531 C 4.1875 4.144531 4.207031 4.152344 4.207031 4.160156 C 4.207031 4.167969 4.242188 4.175781 4.285156 4.175781 C 4.332031 4.175781 4.371094 4.167969 4.375 4.160156 C 4.382812 4.152344 4.398438 4.144531 4.417969 4.144531 C 4.433594 4.144531 4.449219 4.136719 4.449219 4.128906 C 4.449219 4.121094 4.460938 4.113281 4.472656 4.113281 C 4.507812 4.113281 4.574219 4.0625 4.574219 4.039062 C 4.574219 4.027344 4.582031 4.015625 4.59375 4.015625 C 4.601562 4.015625 4.609375 4 4.609375 3.984375 C 4.609375 3.964844 4.613281 3.953125 4.625 3.953125 C 4.660156 3.953125 4.644531 3.625 4.609375 3.601562 C 4.589844 3.585938 4.574219 3.566406 4.574219 3.554688 C 4.574219 3.542969 4.554688 3.511719 4.527344 3.488281 C 4.5 3.464844 4.480469 3.433594 4.480469 3.425781 C 4.480469 3.414062 4.457031 3.382812 4.433594 3.359375 C 4.40625 3.335938 4.382812 3.308594 4.382812 3.300781 C 4.382812 3.292969 4.363281 3.273438 4.335938 3.257812 C 4.308594 3.238281 4.289062 3.21875 4.289062 3.210938 C 4.289062 3.207031 4.269531 3.199219 4.25 3.199219 C 4.226562 3.199219 4.207031 3.191406 4.199219 3.183594 C 4.1875 3.164062 4.039062 3.167969 3.972656 3.191406 M 10.710938 3.503906 C 10.707031 3.511719 10.632812 3.519531 10.550781 3.519531 C 10.460938 3.519531 10.398438 3.527344 10.398438 3.535156 C 10.398438 3.542969 10.363281 3.550781 10.320312 3.550781 C 10.277344 3.550781 10.238281 3.558594 10.238281 3.566406 C 10.238281 3.578125 10.203125 3.585938 10.160156 3.585938 C 10.117188 3.585938 10.078125 3.589844 10.078125 3.601562 C 10.078125 3.609375 10.058594 3.617188 10.03125 3.617188 C 10.003906 3.617188 9.984375 3.625 9.984375 3.632812 C 9.984375 3.640625 9.957031 3.648438 9.921875 3.648438 C 9.886719 3.648438 9.855469 3.65625 9.847656 3.664062 C 9.84375 3.671875 9.8125 3.679688 9.78125 3.6875 C 9.75 3.691406 9.710938 3.703125 9.695312 3.714844 C 9.675781 3.722656 9.648438 3.734375 9.632812 3.742188 C 9.613281 3.753906 9.589844 3.761719 9.578125 3.761719 C 9.5625 3.761719 9.550781 3.765625 9.550781 3.777344 C 9.550781 3.785156 9.539062 3.792969 9.523438 3.792969 C 9.507812 3.792969 9.4375 3.820312 9.367188 3.859375 C 9.296875 3.894531 9.222656 3.933594 9.203125 3.941406 C 9.183594 3.953125 9.167969 3.964844 9.167969 3.972656 C 9.167969 3.980469 9.144531 3.984375 9.121094 3.984375 C 9.09375 3.984375 9.070312 3.976562 9.070312 3.96875 C 9.070312 3.960938 9.0625 3.953125 9.046875 3.953125 C 9.035156 3.953125 9.007812 3.945312 8.992188 3.9375 C 8.972656 3.925781 8.945312 3.914062 8.929688 3.902344 C 8.910156 3.894531 8.882812 3.886719 8.863281 3.886719 C 8.847656 3.886719 8.828125 3.878906 8.824219 3.871094 C 8.820312 3.863281 8.796875 3.855469 8.773438 3.855469 C 8.753906 3.855469 8.734375 3.847656 8.734375 3.839844 C 8.734375 3.832031 8.714844 3.824219 8.6875 3.824219 C 8.664062 3.824219 8.636719 3.816406 8.632812 3.808594 C 8.625 3.800781 8.597656 3.792969 8.566406 3.792969 C 8.535156 3.792969 8.511719 3.785156 8.511719 3.777344 C 8.511719 3.765625 8.484375 3.761719 8.453125 3.761719 C 8.417969 3.761719 8.382812 3.753906 8.375 3.746094 C 8.367188 3.738281 8.332031 3.726562 8.296875 3.722656 C 8.261719 3.71875 8.125 3.699219 7.992188 3.679688 C 7.585938 3.625 6.777344 3.648438 6.425781 3.726562 C 6.378906 3.738281 6.316406 3.75 6.285156 3.753906 C 6.25 3.757812 6.21875 3.769531 6.214844 3.777344 C 6.210938 3.785156 6.183594 3.792969 6.160156 3.792969 C 6.132812 3.792969 6.113281 3.800781 6.113281 3.808594 C 6.113281 3.816406 6.089844 3.824219 6.066406 3.824219 C 6.039062 3.824219 6.011719 3.832031 6.007812 3.839844 C 6.003906 3.847656 5.980469 3.855469 5.960938 3.855469 C 5.9375 3.855469 5.917969 3.863281 5.910156 3.871094 C 5.90625 3.878906 5.882812 3.886719 5.863281 3.886719 C 5.839844 3.886719 5.824219 3.894531 5.824219 3.902344 C 5.824219 3.914062 5.804688 3.921875 5.785156 3.921875 C 5.761719 3.921875 5.742188 3.925781 5.742188 3.9375 C 5.742188 3.945312 5.730469 3.953125 5.710938 3.953125 C 5.695312 3.953125 5.679688 3.960938 5.679688 3.96875 C 5.679688 3.976562 5.664062 3.984375 5.640625 3.984375 C 5.621094 3.984375 5.597656 3.992188 5.59375 4 C 5.585938 4.007812 5.566406 4.015625 5.550781 4.015625 C 5.535156 4.015625 5.519531 4.023438 5.519531 4.03125 C 5.519531 4.039062 5.503906 4.046875 5.488281 4.046875 C 5.46875 4.046875 5.457031 4.054688 5.457031 4.0625 C 5.457031 4.074219 5.441406 4.078125 5.425781 4.078125 C 5.40625 4.078125 5.390625 4.085938 5.390625 4.097656 C 5.390625 4.105469 5.378906 4.113281 5.359375 4.113281 C 5.34375 4.113281 5.328125 4.121094 5.328125 4.128906 C 5.328125 4.136719 5.3125 4.144531 5.296875 4.144531 C 5.277344 4.144531 5.265625 4.152344 5.265625 4.160156 C 5.265625 4.167969 5.253906 4.175781 5.238281 4.175781 C 5.226562 4.175781 5.214844 4.183594 5.214844 4.191406 C 5.214844 4.199219 5.207031 4.207031 5.191406 4.207031 C 5.179688 4.207031 5.167969 4.214844 5.167969 4.222656 C 5.167969 4.234375 5.152344 4.238281 5.136719 4.238281 C 5.117188 4.238281 5.105469 4.246094 5.105469 4.257812 C 5.105469 4.265625 5.09375 4.273438 5.078125 4.273438 C 5.066406 4.273438 5.054688 4.277344 5.054688 4.285156 C 5.054688 4.296875 5.027344 4.3125 4.992188 4.328125 C 4.957031 4.34375 4.929688 4.363281 4.929688 4.367188 C 4.929688 4.375 4.90625 4.390625 4.878906 4.398438 C 4.855469 4.410156 4.832031 4.425781 4.832031 4.429688 C 4.832031 4.4375 4.8125 4.453125 4.789062 4.464844 C 4.765625 4.476562 4.726562 4.507812 4.703125 4.53125 C 4.679688 4.554688 4.652344 4.574219 4.644531 4.574219 C 4.632812 4.574219 4.589844 4.613281 4.546875 4.65625 C 4.5 4.699219 4.460938 4.734375 4.457031 4.734375 C 4.433594 4.734375 3.953125 5.246094 3.953125 5.269531 C 3.953125 5.277344 3.929688 5.304688 3.902344 5.328125 C 3.878906 5.351562 3.855469 5.382812 3.855469 5.390625 C 3.855469 5.402344 3.839844 5.425781 3.816406 5.449219 C 3.796875 5.46875 3.773438 5.5 3.769531 5.519531 C 3.761719 5.539062 3.753906 5.550781 3.746094 5.550781 C 3.738281 5.550781 3.71875 5.582031 3.703125 5.617188 C 3.6875 5.652344 3.667969 5.679688 3.660156 5.679688 C 3.652344 5.679688 3.648438 5.691406 3.648438 5.703125 C 3.648438 5.71875 3.640625 5.726562 3.632812 5.726562 C 3.625 5.726562 3.617188 5.742188 3.617188 5.761719 C 3.617188 5.777344 3.609375 5.792969 3.601562 5.792969 C 3.589844 5.792969 3.585938 5.800781 3.585938 5.8125 C 3.585938 5.824219 3.570312 5.847656 3.550781 5.867188 C 3.535156 5.886719 3.519531 5.914062 3.519531 5.925781 C 3.519531 5.941406 3.511719 5.953125 3.503906 5.953125 C 3.496094 5.953125 3.488281 5.964844 3.488281 5.984375 C 3.488281 6 3.480469 6.015625 3.472656 6.015625 C 3.464844 6.015625 3.457031 6.03125 3.457031 6.046875 C 3.457031 6.066406 3.449219 6.078125 3.441406 6.078125 C 3.429688 6.078125 3.425781 6.09375 3.425781 6.113281 C 3.425781 6.128906 3.417969 6.144531 3.40625 6.144531 C 3.398438 6.144531 3.390625 6.15625 3.390625 6.175781 C 3.390625 6.191406 3.386719 6.210938 3.375 6.214844 C 3.367188 6.222656 3.359375 6.242188 3.359375 6.265625 C 3.359375 6.285156 3.351562 6.304688 3.34375 6.304688 C 3.335938 6.304688 3.328125 6.320312 3.328125 6.335938 C 3.328125 6.355469 3.320312 6.367188 3.3125 6.367188 C 3.304688 6.367188 3.296875 6.386719 3.296875 6.40625 C 3.296875 6.429688 3.289062 6.449219 3.28125 6.449219 C 3.269531 6.449219 3.265625 6.464844 3.265625 6.488281 C 3.265625 6.507812 3.257812 6.53125 3.246094 6.535156 C 3.238281 6.542969 3.230469 6.5625 3.230469 6.585938 C 3.230469 6.605469 3.226562 6.625 3.214844 6.632812 C 3.207031 6.636719 3.199219 6.664062 3.199219 6.6875 C 3.199219 6.714844 3.191406 6.734375 3.183594 6.734375 C 3.175781 6.734375 3.167969 6.757812 3.167969 6.785156 C 3.167969 6.808594 3.160156 6.832031 3.152344 6.832031 C 3.144531 6.832031 3.136719 6.859375 3.136719 6.894531 C 3.136719 6.929688 3.128906 6.960938 3.121094 6.960938 C 3.113281 6.960938 3.101562 6.992188 3.097656 7.027344 C 3.09375 7.066406 3.082031 7.140625 3.070312 7.191406 C 3.027344 7.449219 3.019531 7.574219 3.019531 8 C 3.019531 8.425781 3.027344 8.550781 3.070312 8.808594 C 3.082031 8.859375 3.09375 8.933594 3.097656 8.972656 C 3.101562 9.007812 3.113281 9.039062 3.121094 9.039062 C 3.128906 9.039062 3.136719 9.070312 3.136719 9.105469 C 3.136719 9.140625 3.144531 9.167969 3.152344 9.167969 C 3.160156 9.167969 3.167969 9.191406 3.167969 9.214844 C 3.167969 9.242188 3.175781 9.265625 3.183594 9.265625 C 3.191406 9.265625 3.199219 9.285156 3.199219 9.3125 C 3.199219 9.335938 3.207031 9.363281 3.214844 9.367188 C 3.226562 9.375 3.230469 9.394531 3.230469 9.414062 C 3.230469 9.4375 3.238281 9.457031 3.246094 9.464844 C 3.257812 9.46875 3.265625 9.492188 3.265625 9.511719 C 3.265625 9.535156 3.269531 9.550781 3.28125 9.550781 C 3.289062 9.550781 3.296875 9.570312 3.296875 9.59375 C 3.296875 9.613281 3.304688 9.632812 3.3125 9.632812 C 3.320312 9.632812 3.328125 9.644531 3.328125 9.664062 C 3.328125 9.679688 3.335938 9.695312 3.34375 9.695312 C 3.351562 9.695312 3.359375 9.714844 3.359375 9.734375 C 3.359375 9.757812 3.367188 9.777344 3.375 9.785156 C 3.386719 9.789062 3.390625 9.808594 3.390625 9.824219 C 3.390625 9.84375 3.398438 9.855469 3.40625 9.855469 C 3.417969 9.855469 3.425781 9.871094 3.425781 9.886719 C 3.425781 9.90625 3.429688 9.921875 3.441406 9.921875 C 3.449219 9.921875 3.457031 9.933594 3.457031 9.953125 C 3.457031 9.96875 3.464844 9.984375 3.472656 9.984375 C 3.480469 9.984375 3.488281 10 3.488281 10.015625 C 3.488281 10.035156 3.496094 10.046875 3.503906 10.046875 C 3.511719 10.046875 3.519531 10.058594 3.519531 10.074219 C 3.519531 10.085938 3.535156 10.113281 3.550781 10.132812 C 3.570312 10.152344 3.585938 10.175781 3.585938 10.1875 C 3.585938 10.199219 3.589844 10.207031 3.601562 10.207031 C 3.609375 10.207031 3.617188 10.222656 3.617188 10.238281 C 3.617188 10.257812 3.625 10.273438 3.632812 10.273438 C 3.640625 10.273438 3.648438 10.28125 3.648438 10.296875 C 3.648438 10.308594 3.652344 10.320312 3.660156 10.320312 C 3.667969 10.320312 3.6875 10.347656 3.703125 10.382812 C 3.71875 10.417969 3.738281 10.449219 3.746094 10.449219 C 3.753906 10.449219 3.761719 10.457031 3.761719 10.46875 C 3.761719 10.480469 3.78125 10.511719 3.808594 10.542969 C 3.835938 10.574219 3.855469 10.605469 3.855469 10.613281 C 3.855469 10.621094 3.878906 10.648438 3.902344 10.671875 C 3.929688 10.695312 3.953125 10.722656 3.953125 10.734375 C 3.953125 10.742188 3.988281 10.785156 4.03125 10.832031 C 4.074219 10.875 4.113281 10.914062 4.113281 10.917969 C 4.113281 10.929688 4.472656 11.296875 4.484375 11.296875 C 4.492188 11.296875 4.53125 11.332031 4.578125 11.375 C 4.621094 11.421875 4.664062 11.457031 4.671875 11.457031 C 4.683594 11.457031 4.710938 11.476562 4.738281 11.503906 C 4.765625 11.53125 4.796875 11.550781 4.804688 11.550781 C 4.8125 11.550781 4.835938 11.570312 4.855469 11.589844 C 4.875 11.609375 4.914062 11.636719 4.941406 11.648438 C 4.96875 11.660156 4.992188 11.675781 4.992188 11.683594 C 4.992188 11.691406 5.003906 11.695312 5.015625 11.695312 C 5.027344 11.695312 5.039062 11.703125 5.039062 11.710938 C 5.039062 11.722656 5.054688 11.726562 5.070312 11.726562 C 5.085938 11.726562 5.105469 11.742188 5.121094 11.761719 C 5.132812 11.777344 5.15625 11.792969 5.171875 11.792969 C 5.1875 11.792969 5.199219 11.800781 5.199219 11.808594 C 5.199219 11.816406 5.214844 11.824219 5.230469 11.824219 C 5.246094 11.824219 5.265625 11.828125 5.265625 11.835938 C 5.273438 11.851562 5.359375 11.902344 5.394531 11.914062 C 5.410156 11.917969 5.425781 11.929688 5.425781 11.9375 C 5.425781 11.945312 5.4375 11.953125 5.457031 11.953125 C 5.472656 11.953125 5.488281 11.960938 5.488281 11.96875 C 5.488281 11.976562 5.503906 11.984375 5.527344 11.984375 C 5.546875 11.984375 5.570312 11.992188 5.574219 12 C 5.582031 12.007812 5.601562 12.015625 5.617188 12.015625 C 5.632812 12.015625 5.648438 12.023438 5.648438 12.03125 C 5.648438 12.039062 5.664062 12.046875 5.679688 12.046875 C 5.699219 12.046875 5.710938 12.054688 5.710938 12.0625 C 5.710938 12.074219 5.730469 12.078125 5.753906 12.078125 C 5.773438 12.078125 5.792969 12.085938 5.792969 12.097656 C 5.792969 12.105469 5.804688 12.113281 5.824219 12.113281 C 5.839844 12.113281 5.859375 12.121094 5.863281 12.128906 C 5.871094 12.136719 5.890625 12.144531 5.914062 12.144531 C 5.933594 12.144531 5.953125 12.152344 5.953125 12.160156 C 5.953125 12.167969 5.972656 12.175781 6 12.175781 C 6.027344 12.175781 6.046875 12.183594 6.046875 12.191406 C 6.046875 12.199219 6.070312 12.207031 6.09375 12.207031 C 6.121094 12.207031 6.148438 12.214844 6.152344 12.222656 C 6.15625 12.234375 6.1875 12.238281 6.21875 12.238281 C 6.246094 12.238281 6.273438 12.246094 6.273438 12.257812 C 6.273438 12.265625 6.296875 12.273438 6.328125 12.273438 C 6.355469 12.273438 6.386719 12.277344 6.390625 12.289062 C 6.398438 12.296875 6.425781 12.304688 6.457031 12.304688 C 6.488281 12.304688 6.527344 12.3125 6.542969 12.320312 C 6.558594 12.328125 6.652344 12.339844 6.75 12.347656 C 6.847656 12.351562 6.933594 12.363281 6.9375 12.371094 C 6.949219 12.386719 7.820312 12.386719 7.832031 12.371094 C 7.835938 12.363281 7.929688 12.351562 8.042969 12.347656 C 8.152344 12.339844 8.253906 12.328125 8.261719 12.320312 C 8.277344 12.308594 8.316406 12.300781 8.46875 12.277344 C 8.5 12.273438 8.53125 12.261719 8.535156 12.253906 C 8.542969 12.246094 8.5625 12.238281 8.578125 12.238281 C 8.617188 12.238281 8.710938 12.214844 8.753906 12.191406 C 8.769531 12.183594 8.792969 12.175781 8.808594 12.175781 C 8.820312 12.175781 8.84375 12.167969 8.859375 12.160156 C 8.875 12.152344 8.910156 12.140625 8.9375 12.128906 C 8.960938 12.117188 8.996094 12.101562 9.011719 12.09375 C 9.027344 12.085938 9.054688 12.078125 9.070312 12.078125 C 9.089844 12.078125 9.105469 12.074219 9.105469 12.0625 C 9.105469 12.054688 9.117188 12.046875 9.136719 12.046875 C 9.152344 12.046875 9.167969 12.039062 9.167969 12.03125 C 9.167969 12.023438 9.179688 12.015625 9.191406 12.015625 C 9.207031 12.015625 9.230469 12.007812 9.246094 12 C 9.257812 11.992188 9.308594 11.96875 9.351562 11.949219 C 9.394531 11.929688 9.433594 11.90625 9.4375 11.898438 C 9.441406 11.894531 9.457031 11.886719 9.472656 11.886719 C 9.488281 11.886719 9.503906 11.878906 9.503906 11.871094 C 9.503906 11.863281 9.515625 11.855469 9.527344 11.855469 C 9.542969 11.855469 9.550781 11.847656 9.550781 11.839844 C 9.550781 11.832031 9.566406 11.824219 9.585938 11.824219 C 9.601562 11.824219 9.617188 11.816406 9.617188 11.808594 C 9.617188 11.800781 9.625 11.792969 9.632812 11.792969 C 9.640625 11.792969 9.664062 11.777344 9.683594 11.761719 C 9.703125 11.742188 9.726562 11.726562 9.738281 11.726562 C 9.75 11.726562 9.761719 11.722656 9.761719 11.710938 C 9.761719 11.703125 9.773438 11.695312 9.792969 11.695312 C 9.808594 11.695312 9.824219 11.691406 9.824219 11.683594 C 9.824219 11.675781 9.851562 11.65625 9.886719 11.640625 C 9.921875 11.625 9.953125 11.605469 9.953125 11.597656 C 9.953125 11.589844 9.964844 11.582031 9.980469 11.578125 C 9.996094 11.574219 10.027344 11.550781 10.046875 11.53125 C 10.070312 11.511719 10.113281 11.476562 10.144531 11.457031 C 10.277344 11.363281 10.769531 10.871094 10.863281 10.734375 C 10.886719 10.703125 10.917969 10.664062 10.9375 10.640625 C 10.957031 10.621094 10.984375 10.582031 10.992188 10.558594 C 11.003906 10.53125 11.019531 10.511719 11.027344 10.511719 C 11.035156 10.511719 11.039062 10.5 11.039062 10.484375 C 11.039062 10.46875 11.054688 10.445312 11.070312 10.433594 C 11.089844 10.417969 11.105469 10.394531 11.105469 10.378906 C 11.105469 10.355469 11.121094 10.351562 11.210938 10.351562 C 11.371094 10.347656 11.585938 10.320312 11.777344 10.273438 C 11.816406 10.261719 11.871094 10.25 11.898438 10.246094 C 11.929688 10.242188 11.953125 10.230469 11.953125 10.222656 C 11.953125 10.214844 11.972656 10.207031 12 10.207031 C 12.027344 10.207031 12.046875 10.199219 12.046875 10.191406 C 12.046875 10.183594 12.0625 10.175781 12.082031 10.175781 C 12.109375 10.175781 12.125 10.171875 12.203125 10.128906 C 12.222656 10.121094 12.25 10.113281 12.265625 10.113281 C 12.277344 10.113281 12.289062 10.105469 12.289062 10.097656 C 12.289062 10.085938 12.300781 10.078125 12.320312 10.078125 C 12.335938 10.078125 12.351562 10.074219 12.351562 10.0625 C 12.351562 10.054688 12.367188 10.046875 12.382812 10.046875 C 12.402344 10.046875 12.414062 10.039062 12.414062 10.03125 C 12.414062 10.023438 12.429688 10.015625 12.449219 10.015625 C 12.464844 10.015625 12.480469 10.007812 12.480469 10 C 12.480469 9.992188 12.496094 9.984375 12.511719 9.984375 C 12.53125 9.984375 12.542969 9.976562 12.542969 9.96875 C 12.542969 9.960938 12.558594 9.953125 12.574219 9.953125 C 12.59375 9.953125 12.609375 9.945312 12.609375 9.9375 C 12.609375 9.925781 12.617188 9.921875 12.632812 9.921875 C 12.644531 9.921875 12.671875 9.90625 12.691406 9.886719 C 12.710938 9.871094 12.734375 9.855469 12.746094 9.855469 C 12.757812 9.855469 12.769531 9.847656 12.769531 9.839844 C 12.769531 9.832031 12.777344 9.824219 12.789062 9.824219 C 12.800781 9.824219 12.824219 9.808594 12.84375 9.792969 C 12.863281 9.773438 12.886719 9.761719 12.894531 9.761719 C 12.90625 9.761719 12.910156 9.753906 12.910156 9.742188 C 12.910156 9.734375 12.921875 9.726562 12.933594 9.726562 C 12.945312 9.726562 12.964844 9.714844 12.976562 9.695312 C 12.988281 9.679688 13.007812 9.664062 13.019531 9.664062 C 13.027344 9.664062 13.066406 9.636719 13.105469 9.601562 C 13.140625 9.566406 13.175781 9.535156 13.183594 9.535156 C 13.203125 9.535156 13.519531 9.21875 13.519531 9.199219 C 13.519531 9.191406 13.550781 9.152344 13.59375 9.109375 C 13.632812 9.066406 13.664062 9.023438 13.664062 9.011719 C 13.664062 9 13.671875 8.992188 13.675781 8.992188 C 13.683594 8.992188 13.699219 8.972656 13.714844 8.949219 C 13.726562 8.921875 13.746094 8.894531 13.761719 8.878906 C 13.773438 8.867188 13.792969 8.835938 13.808594 8.8125 C 13.820312 8.789062 13.835938 8.769531 13.84375 8.769531 C 13.851562 8.769531 13.855469 8.753906 13.855469 8.734375 C 13.855469 8.71875 13.863281 8.703125 13.871094 8.703125 C 13.878906 8.703125 13.886719 8.695312 13.886719 8.683594 C 13.886719 8.671875 13.902344 8.648438 13.921875 8.628906 C 13.9375 8.609375 13.953125 8.582031 13.953125 8.570312 C 13.953125 8.554688 13.960938 8.542969 13.96875 8.542969 C 13.976562 8.542969 13.984375 8.53125 13.984375 8.511719 C 13.984375 8.496094 13.992188 8.480469 14 8.480469 C 14.007812 8.480469 14.015625 8.464844 14.015625 8.449219 C 14.015625 8.429688 14.023438 8.414062 14.03125 8.414062 C 14.039062 8.414062 14.046875 8.40625 14.046875 8.390625 C 14.046875 8.378906 14.054688 8.355469 14.0625 8.339844 C 14.125 8.214844 14.144531 8.167969 14.144531 8.140625 C 14.144531 8.125 14.152344 8.113281 14.160156 8.113281 C 14.167969 8.113281 14.175781 8.089844 14.175781 8.0625 C 14.175781 8.039062 14.183594 8.015625 14.191406 8.015625 C 14.199219 8.015625 14.207031 7.996094 14.207031 7.96875 C 14.207031 7.941406 14.214844 7.921875 14.222656 7.921875 C 14.234375 7.921875 14.238281 7.890625 14.238281 7.855469 C 14.238281 7.820312 14.246094 7.792969 14.257812 7.792969 C 14.265625 7.792969 14.273438 7.75 14.273438 7.695312 C 14.273438 7.644531 14.265625 7.597656 14.257812 7.59375 C 14.246094 7.585938 14.238281 7.5625 14.238281 7.535156 C 14.238281 7.507812 14.234375 7.488281 14.222656 7.488281 C 14.214844 7.488281 14.207031 7.476562 14.207031 7.464844 C 14.207031 7.429688 14.136719 7.359375 14.105469 7.359375 C 14.089844 7.359375 14.078125 7.351562 14.078125 7.34375 C 14.078125 7.335938 14.066406 7.328125 14.050781 7.328125 C 14.03125 7.328125 14.011719 7.320312 14.007812 7.3125 C 14.003906 7.304688 13.933594 7.296875 13.855469 7.296875 C 13.769531 7.296875 13.710938 7.300781 13.710938 7.3125 C 13.710938 7.320312 13.691406 7.328125 13.664062 7.328125 C 13.636719 7.328125 13.617188 7.335938 13.617188 7.34375 C 13.617188 7.351562 13.585938 7.359375 13.550781 7.359375 C 13.515625 7.359375 13.488281 7.367188 13.488281 7.375 C 13.488281 7.386719 13.453125 7.390625 13.40625 7.390625 C 13.363281 7.390625 13.328125 7.398438 13.328125 7.40625 C 13.328125 7.417969 13.238281 7.425781 13.089844 7.425781 C 12.9375 7.425781 12.847656 7.417969 12.847656 7.40625 C 12.847656 7.398438 12.8125 7.390625 12.769531 7.390625 C 12.726562 7.390625 12.683594 7.386719 12.679688 7.375 C 12.675781 7.367188 12.648438 7.359375 12.625 7.359375 C 12.597656 7.359375 12.574219 7.351562 12.566406 7.34375 C 12.5625 7.335938 12.539062 7.328125 12.519531 7.328125 C 12.5 7.328125 12.476562 7.320312 12.472656 7.3125 C 12.464844 7.304688 12.445312 7.296875 12.421875 7.296875 C 12.402344 7.296875 12.382812 7.289062 12.382812 7.28125 C 12.382812 7.269531 12.371094 7.265625 12.351562 7.265625 C 12.335938 7.265625 12.316406 7.257812 12.3125 7.246094 C 12.304688 7.238281 12.289062 7.230469 12.269531 7.230469 C 12.253906 7.230469 12.238281 7.226562 12.238281 7.21875 C 12.238281 7.210938 12.226562 7.199219 12.210938 7.195312 C 12.183594 7.183594 12.101562 7.136719 12.070312 7.113281 C 12.058594 7.101562 12.011719 7.074219 11.96875 7.046875 C 11.859375 6.988281 11.582031 6.714844 11.535156 6.621094 C 11.523438 6.601562 11.503906 6.570312 11.484375 6.554688 C 11.46875 6.535156 11.457031 6.511719 11.457031 6.5 C 11.457031 6.488281 11.449219 6.480469 11.441406 6.480469 C 11.429688 6.480469 11.425781 6.46875 11.425781 6.457031 C 11.425781 6.441406 11.417969 6.433594 11.40625 6.433594 C 11.398438 6.433594 11.390625 6.421875 11.390625 6.410156 C 11.390625 6.398438 11.378906 6.375 11.359375 6.355469 C 11.34375 6.335938 11.328125 6.308594 11.328125 6.289062 C 11.328125 6.273438 11.320312 6.253906 11.3125 6.246094 C 11.304688 6.242188 11.296875 6.222656 11.296875 6.207031 C 11.296875 6.191406 11.289062 6.175781 11.28125 6.175781 C 11.269531 6.175781 11.265625 6.160156 11.265625 6.144531 C 11.265625 6.128906 11.257812 6.109375 11.246094 6.105469 C 11.238281 6.097656 11.230469 6.078125 11.230469 6.054688 C 11.230469 6.035156 11.226562 6.011719 11.214844 6.007812 C 11.207031 6.003906 11.199219 5.972656 11.199219 5.941406 C 11.199219 5.914062 11.191406 5.886719 11.183594 5.886719 C 11.175781 5.886719 11.167969 5.847656 11.167969 5.800781 C 11.167969 5.75 11.160156 5.710938 11.152344 5.710938 C 11.140625 5.710938 11.136719 5.632812 11.136719 5.503906 C 11.136719 5.382812 11.144531 5.292969 11.152344 5.289062 C 11.160156 5.28125 11.167969 5.238281 11.167969 5.191406 C 11.167969 5.144531 11.175781 5.105469 11.183594 5.105469 C 11.191406 5.105469 11.199219 5.078125 11.199219 5.050781 C 11.199219 5.019531 11.207031 4.988281 11.214844 4.984375 C 11.226562 4.980469 11.230469 4.957031 11.230469 4.9375 C 11.230469 4.914062 11.238281 4.894531 11.246094 4.886719 C 11.257812 4.882812 11.265625 4.859375 11.265625 4.839844 C 11.265625 4.816406 11.269531 4.800781 11.28125 4.800781 C 11.289062 4.800781 11.296875 4.789062 11.296875 4.777344 C 11.296875 4.75 11.308594 4.722656 11.351562 4.648438 C 11.367188 4.621094 11.382812 4.585938 11.386719 4.570312 C 11.390625 4.554688 11.402344 4.542969 11.410156 4.542969 C 11.417969 4.542969 11.425781 4.53125 11.425781 4.511719 C 11.425781 4.496094 11.429688 4.480469 11.4375 4.480469 C 11.445312 4.480469 11.460938 4.460938 11.472656 4.4375 C 11.484375 4.410156 11.507812 4.382812 11.519531 4.367188 C 11.535156 4.355469 11.5625 4.320312 11.585938 4.289062 C 11.609375 4.257812 11.652344 4.207031 11.679688 4.179688 C 11.707031 4.152344 11.726562 4.117188 11.726562 4.105469 C 11.726562 4.089844 11.734375 4.078125 11.742188 4.078125 C 11.753906 4.078125 11.761719 4.058594 11.761719 4.03125 C 11.761719 4.003906 11.765625 3.984375 11.777344 3.984375 C 11.785156 3.984375 11.792969 3.957031 11.792969 3.921875 C 11.792969 3.886719 11.785156 3.855469 11.777344 3.855469 C 11.765625 3.855469 11.761719 3.835938 11.761719 3.808594 C 11.761719 3.710938 11.644531 3.585938 11.550781 3.585938 C 11.535156 3.585938 11.519531 3.578125 11.519531 3.566406 C 11.519531 3.558594 11.492188 3.550781 11.457031 3.550781 C 11.421875 3.550781 11.390625 3.542969 11.390625 3.535156 C 11.390625 3.527344 11.328125 3.519531 11.230469 3.519531 C 11.136719 3.519531 11.070312 3.511719 11.070312 3.503906 C 11.070312 3.496094 11.003906 3.488281 10.898438 3.488281 C 10.796875 3.488281 10.71875 3.496094 10.710938 3.503906 M 10.703125 4.257812 C 10.703125 4.265625 10.695312 4.273438 10.6875 4.273438 C 10.679688 4.273438 10.671875 4.285156 10.671875 4.300781 C 10.671875 4.320312 10.667969 4.335938 10.660156 4.339844 C 10.640625 4.347656 10.574219 4.480469 10.574219 4.511719 C 10.574219 4.53125 10.570312 4.542969 10.558594 4.542969 C 10.550781 4.542969 10.542969 4.566406 10.542969 4.59375 C 10.542969 4.617188 10.535156 4.640625 10.527344 4.640625 C 10.519531 4.640625 10.511719 4.660156 10.511719 4.6875 C 10.511719 4.714844 10.503906 4.738281 10.496094 4.742188 C 10.488281 4.75 10.480469 4.785156 10.480469 4.824219 C 10.480469 4.863281 10.472656 4.894531 10.464844 4.894531 C 10.453125 4.894531 10.449219 4.941406 10.449219 5 C 10.449219 5.054688 10.441406 5.105469 10.433594 5.113281 C 10.421875 5.117188 10.414062 5.265625 10.414062 5.496094 C 10.414062 5.726562 10.421875 5.875 10.433594 5.878906 C 10.441406 5.886719 10.449219 5.929688 10.449219 5.976562 C 10.449219 6.023438 10.457031 6.066406 10.464844 6.070312 C 10.472656 6.078125 10.480469 6.105469 10.480469 6.136719 C 10.480469 6.164062 10.488281 6.195312 10.496094 6.199219 C 10.503906 6.207031 10.511719 6.226562 10.511719 6.246094 C 10.511719 6.269531 10.519531 6.289062 10.527344 6.296875 C 10.535156 6.300781 10.542969 6.324219 10.542969 6.34375 C 10.542969 6.367188 10.550781 6.382812 10.558594 6.382812 C 10.570312 6.382812 10.574219 6.40625 10.574219 6.433594 C 10.574219 6.457031 10.582031 6.480469 10.59375 6.480469 C 10.601562 6.480469 10.609375 6.496094 10.609375 6.519531 C 10.609375 6.539062 10.613281 6.5625 10.625 6.566406 C 10.632812 6.574219 10.640625 6.59375 10.640625 6.609375 C 10.640625 6.625 10.648438 6.640625 10.65625 6.640625 C 10.664062 6.640625 10.671875 6.65625 10.671875 6.671875 C 10.671875 6.691406 10.679688 6.703125 10.6875 6.703125 C 10.695312 6.703125 10.703125 6.71875 10.703125 6.734375 C 10.703125 6.753906 10.710938 6.769531 10.71875 6.769531 C 10.730469 6.769531 10.734375 6.777344 10.734375 6.789062 C 10.734375 6.800781 10.75 6.824219 10.769531 6.84375 C 10.785156 6.863281 10.800781 6.890625 10.800781 6.902344 C 10.800781 6.917969 10.808594 6.929688 10.816406 6.929688 C 10.824219 6.929688 10.832031 6.9375 10.832031 6.949219 C 10.832031 6.960938 10.847656 6.980469 10.863281 6.992188 C 10.882812 7.003906 10.894531 7.023438 10.894531 7.03125 C 10.894531 7.042969 10.914062 7.070312 10.941406 7.097656 C 10.964844 7.125 10.996094 7.164062 11.007812 7.191406 C 11.03125 7.238281 11.382812 7.601562 11.40625 7.601562 C 11.417969 7.601562 11.441406 7.617188 11.515625 7.679688 C 11.527344 7.6875 11.542969 7.695312 11.554688 7.695312 C 11.566406 7.695312 11.585938 7.710938 11.601562 7.726562 C 11.613281 7.746094 11.632812 7.761719 11.648438 7.761719 C 11.660156 7.761719 11.683594 7.773438 11.695312 7.792969 C 11.707031 7.808594 11.726562 7.824219 11.738281 7.824219 C 11.75 7.824219 11.761719 7.832031 11.761719 7.839844 C 11.761719 7.847656 11.773438 7.855469 11.792969 7.855469 C 11.808594 7.855469 11.824219 7.863281 11.824219 7.871094 C 11.824219 7.878906 11.839844 7.886719 11.855469 7.886719 C 11.875 7.886719 11.886719 7.894531 11.886719 7.902344 C 11.886719 7.914062 11.902344 7.921875 11.921875 7.921875 C 11.9375 7.921875 11.953125 7.925781 11.953125 7.9375 C 11.953125 7.945312 11.964844 7.953125 11.984375 7.953125 C 12 7.953125 12.015625 7.960938 12.015625 7.96875 C 12.015625 7.976562 12.03125 7.984375 12.046875 7.984375 C 12.0625 7.984375 12.082031 7.992188 12.089844 8 C 12.09375 8.007812 12.117188 8.015625 12.136719 8.015625 C 12.160156 8.015625 12.175781 8.023438 12.175781 8.03125 C 12.175781 8.039062 12.199219 8.046875 12.222656 8.046875 C 12.25 8.046875 12.273438 8.054688 12.273438 8.0625 C 12.273438 8.074219 12.292969 8.078125 12.320312 8.078125 C 12.347656 8.078125 12.367188 8.085938 12.367188 8.097656 C 12.367188 8.105469 12.394531 8.113281 12.421875 8.113281 C 12.453125 8.113281 12.484375 8.121094 12.488281 8.128906 C 12.492188 8.136719 12.53125 8.144531 12.570312 8.144531 C 12.609375 8.144531 12.640625 8.152344 12.640625 8.160156 C 12.640625 8.167969 12.710938 8.175781 12.816406 8.175781 C 12.921875 8.175781 12.992188 8.183594 12.992188 8.191406 C 12.992188 8.199219 13.011719 8.207031 13.03125 8.207031 C 13.054688 8.207031 13.070312 8.199219 13.070312 8.191406 C 13.070312 8.183594 13.121094 8.175781 13.183594 8.175781 C 13.246094 8.175781 13.296875 8.183594 13.296875 8.191406 C 13.296875 8.199219 13.289062 8.207031 13.28125 8.207031 C 13.269531 8.207031 13.265625 8.222656 13.265625 8.238281 C 13.265625 8.257812 13.257812 8.273438 13.246094 8.273438 C 13.238281 8.273438 13.230469 8.285156 13.230469 8.296875 C 13.230469 8.3125 13.21875 8.335938 13.203125 8.351562 C 13.1875 8.363281 13.167969 8.394531 13.15625 8.417969 C 13.144531 8.441406 13.113281 8.484375 13.085938 8.511719 C 13.058594 8.542969 13.027344 8.589844 13.015625 8.613281 C 12.984375 8.667969 12.664062 8.992188 12.640625 8.992188 C 12.628906 8.992188 12.613281 9 12.601562 9.011719 C 12.554688 9.058594 12.5 9.097656 12.460938 9.117188 C 12.4375 9.132812 12.414062 9.148438 12.414062 9.15625 C 12.414062 9.160156 12.410156 9.167969 12.398438 9.167969 C 12.390625 9.167969 12.367188 9.183594 12.347656 9.199219 C 12.328125 9.21875 12.304688 9.230469 12.292969 9.230469 C 12.28125 9.230469 12.273438 9.238281 12.273438 9.246094 C 12.273438 9.257812 12.257812 9.265625 12.238281 9.265625 C 12.222656 9.265625 12.207031 9.269531 12.207031 9.28125 C 12.207031 9.289062 12.195312 9.296875 12.175781 9.296875 C 12.160156 9.296875 12.144531 9.304688 12.144531 9.3125 C 12.144531 9.320312 12.128906 9.328125 12.113281 9.328125 C 12.09375 9.328125 12.078125 9.335938 12.078125 9.34375 C 12.078125 9.351562 12.066406 9.359375 12.046875 9.359375 C 12.03125 9.359375 12.015625 9.367188 12.015625 9.375 C 12.015625 9.386719 12 9.390625 11.984375 9.390625 C 11.964844 9.390625 11.953125 9.398438 11.953125 9.40625 C 11.953125 9.417969 11.933594 9.425781 11.914062 9.425781 C 11.890625 9.425781 11.871094 9.429688 11.863281 9.441406 C 11.859375 9.449219 11.839844 9.457031 11.824219 9.457031 C 11.804688 9.457031 11.792969 9.464844 11.792969 9.472656 C 11.792969 9.480469 11.769531 9.488281 11.742188 9.488281 C 11.71875 9.488281 11.695312 9.496094 11.695312 9.503906 C 11.695312 9.511719 11.671875 9.519531 11.640625 9.519531 C 11.609375 9.519531 11.585938 9.527344 11.585938 9.535156 C 11.585938 9.542969 11.554688 9.550781 11.519531 9.550781 C 11.484375 9.550781 11.457031 9.558594 11.457031 9.566406 C 11.457031 9.578125 11.421875 9.585938 11.375 9.585938 C 11.332031 9.585938 11.296875 9.589844 11.296875 9.601562 C 11.296875 9.609375 11.234375 9.617188 11.144531 9.617188 C 11.054688 9.617188 10.992188 9.621094 10.992188 9.632812 C 10.992188 9.640625 10.945312 9.648438 10.882812 9.648438 C 10.820312 9.648438 10.765625 9.640625 10.761719 9.632812 C 10.753906 9.625 10.6875 9.617188 10.613281 9.617188 C 10.535156 9.617188 10.480469 9.609375 10.480469 9.601562 C 10.480469 9.589844 10.445312 9.585938 10.398438 9.585938 C 10.355469 9.585938 10.320312 9.578125 10.320312 9.566406 C 10.320312 9.558594 10.296875 9.550781 10.265625 9.550781 C 10.234375 9.550781 10.207031 9.542969 10.199219 9.535156 C 10.195312 9.527344 10.171875 9.519531 10.152344 9.519531 C 10.128906 9.519531 10.097656 9.511719 10.078125 9.503906 C 10.0625 9.496094 10.035156 9.480469 10.015625 9.472656 C 10 9.464844 9.96875 9.457031 9.953125 9.457031 C 9.933594 9.457031 9.921875 9.449219 9.921875 9.441406 C 9.921875 9.4375 9.882812 9.421875 9.839844 9.40625 C 9.796875 9.394531 9.761719 9.378906 9.761719 9.375 C 9.761719 9.367188 9.746094 9.359375 9.726562 9.359375 C 9.710938 9.359375 9.695312 9.355469 9.695312 9.347656 C 9.695312 9.339844 9.671875 9.324219 9.640625 9.3125 C 9.609375 9.300781 9.585938 9.285156 9.585938 9.277344 C 9.585938 9.269531 9.574219 9.265625 9.558594 9.265625 C 9.546875 9.265625 9.535156 9.257812 9.535156 9.246094 C 9.535156 9.238281 9.523438 9.230469 9.511719 9.230469 C 9.5 9.230469 9.488281 9.226562 9.488281 9.214844 C 9.488281 9.207031 9.476562 9.199219 9.460938 9.199219 C 9.445312 9.199219 9.421875 9.1875 9.40625 9.167969 C 9.394531 9.152344 9.375 9.136719 9.363281 9.136719 C 9.351562 9.136719 9.328125 9.121094 9.3125 9.105469 C 9.300781 9.089844 9.265625 9.066406 9.238281 9.050781 C 9.167969 9.015625 8.769531 8.613281 8.769531 8.578125 C 8.769531 8.570312 8.746094 8.542969 8.71875 8.515625 C 8.695312 8.488281 8.671875 8.457031 8.671875 8.449219 C 8.671875 8.4375 8.664062 8.433594 8.65625 8.433594 C 8.648438 8.433594 8.640625 8.421875 8.640625 8.40625 C 8.640625 8.394531 8.632812 8.382812 8.625 8.382812 C 8.613281 8.382812 8.609375 8.375 8.609375 8.363281 C 8.609375 8.351562 8.59375 8.332031 8.574219 8.320312 C 8.558594 8.308594 8.542969 8.285156 8.542969 8.269531 C 8.542969 8.253906 8.535156 8.238281 8.527344 8.238281 C 8.519531 8.238281 8.511719 8.226562 8.511719 8.207031 C 8.511719 8.191406 8.503906 8.175781 8.496094 8.175781 C 8.488281 8.175781 8.480469 8.160156 8.480469 8.144531 C 8.480469 8.125 8.472656 8.113281 8.464844 8.113281 C 8.457031 8.113281 8.449219 8.097656 8.449219 8.078125 C 8.449219 8.0625 8.441406 8.046875 8.433594 8.046875 C 8.421875 8.046875 8.414062 8.035156 8.414062 8.015625 C 8.414062 8 8.410156 7.984375 8.398438 7.984375 C 8.390625 7.984375 8.382812 7.96875 8.382812 7.953125 C 8.382812 7.933594 8.375 7.921875 8.367188 7.921875 C 8.359375 7.921875 8.351562 7.902344 8.351562 7.882812 C 8.351562 7.851562 8.320312 7.742188 8.285156 7.65625 C 8.269531 7.613281 8.253906 7.542969 8.246094 7.460938 C 8.242188 7.421875 8.230469 7.390625 8.222656 7.390625 C 8.214844 7.390625 8.207031 7.34375 8.207031 7.289062 C 8.207031 7.230469 8.199219 7.179688 8.191406 7.175781 C 8.183594 7.171875 8.175781 7.0625 8.175781 6.902344 C 8.175781 6.746094 8.183594 6.636719 8.191406 6.632812 C 8.199219 6.625 8.207031 6.574219 8.207031 6.519531 C 8.207031 6.460938 8.214844 6.414062 8.222656 6.414062 C 8.234375 6.414062 8.238281 6.386719 8.238281 6.351562 C 8.238281 6.316406 8.246094 6.285156 8.257812 6.28125 C 8.265625 6.273438 8.273438 6.25 8.273438 6.222656 C 8.273438 6.199219 8.277344 6.171875 8.289062 6.167969 C 8.296875 6.164062 8.304688 6.140625 8.304688 6.121094 C 8.304688 6.097656 8.308594 6.078125 8.316406 6.074219 C 8.324219 6.066406 8.335938 6.03125 8.34375 5.992188 C 8.347656 5.953125 8.359375 5.921875 8.367188 5.921875 C 8.378906 5.921875 8.382812 5.898438 8.382812 5.871094 C 8.382812 5.84375 8.390625 5.824219 8.398438 5.824219 C 8.410156 5.824219 8.414062 5.808594 8.414062 5.792969 C 8.414062 5.773438 8.421875 5.761719 8.433594 5.761719 C 8.441406 5.761719 8.449219 5.746094 8.449219 5.726562 C 8.449219 5.710938 8.457031 5.695312 8.464844 5.695312 C 8.472656 5.695312 8.480469 5.683594 8.480469 5.671875 C 8.480469 5.660156 8.488281 5.648438 8.496094 5.648438 C 8.503906 5.648438 8.511719 5.636719 8.511719 5.625 C 8.511719 5.609375 8.527344 5.582031 8.542969 5.5625 C 8.5625 5.546875 8.574219 5.519531 8.574219 5.507812 C 8.574219 5.496094 8.582031 5.488281 8.59375 5.488281 C 8.601562 5.488281 8.609375 5.480469 8.609375 5.46875 C 8.609375 5.457031 8.628906 5.421875 8.65625 5.390625 C 8.683594 5.359375 8.703125 5.332031 8.703125 5.324219 C 8.703125 5.316406 8.730469 5.285156 8.761719 5.253906 C 8.789062 5.222656 8.816406 5.191406 8.816406 5.183594 C 8.816406 5.164062 9.132812 4.847656 9.152344 4.847656 C 9.160156 4.847656 9.191406 4.824219 9.222656 4.792969 C 9.253906 4.761719 9.289062 4.734375 9.300781 4.734375 C 9.3125 4.734375 9.332031 4.722656 9.34375 4.703125 C 9.355469 4.6875 9.378906 4.671875 9.390625 4.671875 C 9.40625 4.671875 9.425781 4.65625 9.441406 4.640625 C 9.453125 4.621094 9.476562 4.609375 9.492188 4.609375 C 9.507812 4.609375 9.519531 4.601562 9.519531 4.59375 C 9.519531 4.585938 9.546875 4.570312 9.574219 4.558594 C 9.605469 4.546875 9.632812 4.53125 9.632812 4.523438 C 9.632812 4.519531 9.644531 4.511719 9.664062 4.511719 C 9.679688 4.511719 9.695312 4.503906 9.695312 4.496094 C 9.695312 4.488281 9.710938 4.480469 9.726562 4.480469 C 9.746094 4.480469 9.761719 4.472656 9.761719 4.464844 C 9.761719 4.457031 9.773438 4.449219 9.792969 4.449219 C 9.808594 4.449219 9.824219 4.441406 9.824219 4.433594 C 9.824219 4.421875 9.839844 4.414062 9.863281 4.414062 C 9.882812 4.414062 9.90625 4.410156 9.910156 4.398438 C 9.917969 4.390625 9.9375 4.382812 9.953125 4.382812 C 9.96875 4.382812 9.984375 4.378906 9.984375 4.371094 C 9.984375 4.359375 10.09375 4.335938 10.261719 4.308594 C 10.292969 4.304688 10.324219 4.292969 10.328125 4.285156 C 10.332031 4.277344 10.375 4.273438 10.425781 4.273438 C 10.472656 4.273438 10.515625 4.265625 10.519531 4.257812 C 10.527344 4.246094 10.570312 4.238281 10.617188 4.238281 C 10.664062 4.238281 10.703125 4.246094 10.703125 4.257812 M 7.949219 4.367188 C 7.953125 4.375 7.988281 4.382812 8.035156 4.382812 C 8.078125 4.382812 8.113281 4.390625 8.113281 4.398438 C 8.113281 4.410156 8.148438 4.414062 8.191406 4.414062 C 8.234375 4.414062 8.273438 4.421875 8.273438 4.433594 C 8.273438 4.441406 8.292969 4.449219 8.320312 4.449219 C 8.347656 4.449219 8.382812 4.457031 8.402344 4.46875 C 8.425781 4.480469 8.441406 4.488281 8.445312 4.492188 C 8.449219 4.492188 8.367188 4.585938 8.277344 4.679688 C 8.238281 4.71875 8.207031 4.757812 8.207031 4.765625 C 8.207031 4.773438 8.1875 4.800781 8.160156 4.828125 C 8.132812 4.855469 8.113281 4.886719 8.113281 4.894531 C 8.113281 4.90625 8.089844 4.933594 8.066406 4.960938 C 8.039062 4.988281 8.007812 5.03125 7.996094 5.058594 C 7.984375 5.082031 7.972656 5.105469 7.964844 5.105469 C 7.957031 5.105469 7.953125 5.113281 7.953125 5.128906 C 7.953125 5.140625 7.945312 5.152344 7.9375 5.152344 C 7.925781 5.152344 7.921875 5.164062 7.921875 5.175781 C 7.921875 5.1875 7.914062 5.199219 7.902344 5.199219 C 7.894531 5.199219 7.886719 5.214844 7.886719 5.230469 C 7.886719 5.25 7.878906 5.265625 7.871094 5.265625 C 7.863281 5.265625 7.855469 5.277344 7.855469 5.296875 C 7.855469 5.3125 7.847656 5.328125 7.839844 5.328125 C 7.832031 5.328125 7.824219 5.34375 7.824219 5.359375 C 7.824219 5.378906 7.816406 5.390625 7.808594 5.390625 C 7.800781 5.390625 7.792969 5.40625 7.792969 5.425781 C 7.792969 5.441406 7.785156 5.457031 7.78125 5.457031 C 7.773438 5.457031 7.757812 5.488281 7.746094 5.53125 C 7.734375 5.574219 7.71875 5.613281 7.710938 5.625 C 7.695312 5.648438 7.648438 5.800781 7.648438 5.832031 C 7.648438 5.84375 7.640625 5.855469 7.632812 5.855469 C 7.625 5.855469 7.617188 5.878906 7.617188 5.910156 C 7.617188 5.941406 7.609375 5.96875 7.601562 5.976562 C 7.589844 5.980469 7.585938 6.007812 7.585938 6.03125 C 7.585938 6.058594 7.578125 6.078125 7.566406 6.078125 C 7.558594 6.078125 7.550781 6.117188 7.550781 6.160156 C 7.550781 6.203125 7.542969 6.238281 7.535156 6.238281 C 7.527344 6.238281 7.519531 6.277344 7.519531 6.320312 C 7.519531 6.363281 7.511719 6.398438 7.503906 6.398438 C 7.496094 6.398438 7.488281 6.46875 7.488281 6.574219 C 7.488281 6.675781 7.480469 6.753906 7.472656 6.761719 C 7.464844 6.765625 7.457031 6.824219 7.457031 6.886719 C 7.457031 6.953125 7.464844 7.011719 7.472656 7.015625 C 7.480469 7.023438 7.488281 7.105469 7.488281 7.207031 C 7.488281 7.320312 7.496094 7.390625 7.503906 7.390625 C 7.511719 7.390625 7.519531 7.433594 7.519531 7.488281 C 7.519531 7.542969 7.527344 7.585938 7.535156 7.585938 C 7.542969 7.585938 7.550781 7.617188 7.550781 7.65625 C 7.550781 7.695312 7.558594 7.726562 7.566406 7.726562 C 7.578125 7.726562 7.585938 7.753906 7.585938 7.78125 C 7.585938 7.8125 7.589844 7.84375 7.601562 7.847656 C 7.609375 7.851562 7.617188 7.878906 7.617188 7.90625 C 7.617188 7.929688 7.625 7.953125 7.632812 7.953125 C 7.640625 7.953125 7.648438 7.972656 7.648438 8 C 7.648438 8.023438 7.65625 8.050781 7.664062 8.054688 C 7.671875 8.058594 7.679688 8.085938 7.6875 8.117188 C 7.691406 8.148438 7.710938 8.199219 7.726562 8.238281 C 7.746094 8.273438 7.761719 8.3125 7.761719 8.328125 C 7.761719 8.339844 7.765625 8.351562 7.777344 8.351562 C 7.785156 8.351562 7.792969 8.367188 7.792969 8.382812 C 7.792969 8.402344 7.800781 8.414062 7.808594 8.414062 C 7.816406 8.414062 7.824219 8.429688 7.824219 8.449219 C 7.824219 8.464844 7.832031 8.480469 7.839844 8.480469 C 7.847656 8.480469 7.855469 8.496094 7.855469 8.511719 C 7.855469 8.53125 7.863281 8.542969 7.871094 8.542969 C 7.878906 8.542969 7.886719 8.554688 7.886719 8.566406 C 7.886719 8.578125 7.902344 8.601562 7.921875 8.621094 C 7.9375 8.640625 7.953125 8.664062 7.953125 8.679688 C 7.953125 8.691406 7.960938 8.703125 7.96875 8.703125 C 7.976562 8.703125 7.984375 8.714844 7.984375 8.726562 C 7.984375 8.738281 8 8.761719 8.015625 8.78125 C 8.035156 8.800781 8.046875 8.820312 8.046875 8.828125 C 8.046875 8.84375 8.121094 8.9375 8.1875 9.003906 C 8.214844 9.03125 8.238281 9.0625 8.238281 9.070312 C 8.238281 9.089844 8.28125 9.136719 8.515625 9.375 C 8.613281 9.472656 8.695312 9.550781 8.703125 9.550781 C 8.714844 9.550781 8.746094 9.578125 8.777344 9.609375 C 8.8125 9.640625 8.851562 9.664062 8.863281 9.664062 C 8.878906 9.664062 8.898438 9.679688 8.910156 9.695312 C 8.925781 9.714844 8.945312 9.726562 8.960938 9.726562 C 8.972656 9.726562 8.996094 9.742188 9.007812 9.761719 C 9.019531 9.777344 9.039062 9.792969 9.050781 9.792969 C 9.0625 9.792969 9.070312 9.800781 9.070312 9.808594 C 9.070312 9.816406 9.082031 9.824219 9.09375 9.824219 C 9.105469 9.824219 9.128906 9.839844 9.148438 9.855469 C 9.167969 9.875 9.195312 9.886719 9.207031 9.886719 C 9.222656 9.886719 9.230469 9.894531 9.230469 9.902344 C 9.230469 9.914062 9.246094 9.921875 9.265625 9.921875 C 9.28125 9.921875 9.296875 9.925781 9.296875 9.9375 C 9.296875 9.945312 9.308594 9.953125 9.328125 9.953125 C 9.34375 9.953125 9.359375 9.960938 9.359375 9.96875 C 9.359375 9.976562 9.375 9.984375 9.390625 9.984375 C 9.410156 9.984375 9.425781 9.992188 9.425781 10 C 9.425781 10.007812 9.4375 10.015625 9.457031 10.015625 C 9.472656 10.015625 9.488281 10.023438 9.488281 10.03125 C 9.488281 10.039062 9.503906 10.046875 9.527344 10.046875 C 9.546875 10.046875 9.570312 10.054688 9.574219 10.0625 C 9.582031 10.074219 9.601562 10.078125 9.617188 10.078125 C 9.632812 10.078125 9.648438 10.085938 9.648438 10.097656 C 9.648438 10.105469 9.664062 10.113281 9.6875 10.113281 C 9.707031 10.113281 9.730469 10.121094 9.734375 10.128906 C 9.742188 10.136719 9.761719 10.144531 9.785156 10.144531 C 9.804688 10.144531 9.828125 10.152344 9.832031 10.160156 C 9.835938 10.167969 9.859375 10.175781 9.878906 10.175781 C 9.902344 10.175781 9.921875 10.183594 9.925781 10.191406 C 9.933594 10.199219 9.960938 10.207031 9.996094 10.214844 C 10.199219 10.246094 10.214844 10.25 10.210938 10.273438 C 10.207031 10.285156 10.199219 10.296875 10.191406 10.300781 C 10.183594 10.304688 10.175781 10.3125 10.175781 10.324219 C 10.175781 10.332031 10.0625 10.449219 9.929688 10.585938 C 9.792969 10.726562 9.679688 10.84375 9.679688 10.851562 C 9.679688 10.859375 9.667969 10.863281 9.65625 10.863281 C 9.640625 10.863281 9.609375 10.886719 9.585938 10.910156 C 9.558594 10.9375 9.535156 10.960938 9.527344 10.960938 C 9.519531 10.960938 9.398438 11.039062 9.335938 11.082031 C 9.292969 11.113281 9.222656 11.15625 9.195312 11.164062 C 9.179688 11.167969 9.167969 11.175781 9.167969 11.183594 C 9.167969 11.1875 9.144531 11.203125 9.113281 11.214844 C 9.082031 11.226562 9.054688 11.242188 9.054688 11.25 C 9.054688 11.257812 9.042969 11.265625 9.023438 11.265625 C 9.007812 11.265625 8.992188 11.269531 8.992188 11.28125 C 8.992188 11.289062 8.976562 11.296875 8.960938 11.296875 C 8.941406 11.296875 8.929688 11.304688 8.929688 11.3125 C 8.929688 11.320312 8.914062 11.328125 8.894531 11.328125 C 8.878906 11.328125 8.863281 11.335938 8.863281 11.34375 C 8.863281 11.351562 8.847656 11.359375 8.832031 11.359375 C 8.8125 11.359375 8.800781 11.367188 8.800781 11.375 C 8.800781 11.386719 8.78125 11.390625 8.761719 11.390625 C 8.738281 11.390625 8.71875 11.398438 8.710938 11.40625 C 8.707031 11.417969 8.6875 11.425781 8.671875 11.425781 C 8.652344 11.425781 8.640625 11.429688 8.640625 11.441406 C 8.640625 11.449219 8.617188 11.457031 8.59375 11.457031 C 8.566406 11.457031 8.542969 11.464844 8.542969 11.472656 C 8.542969 11.480469 8.527344 11.488281 8.503906 11.488281 C 8.484375 11.488281 8.460938 11.496094 8.457031 11.503906 C 8.449219 11.511719 8.429688 11.519531 8.40625 11.519531 C 8.386719 11.519531 8.367188 11.527344 8.367188 11.535156 C 8.367188 11.542969 8.339844 11.550781 8.304688 11.550781 C 8.269531 11.550781 8.238281 11.558594 8.238281 11.566406 C 8.238281 11.578125 8.210938 11.585938 8.175781 11.585938 C 8.140625 11.585938 8.113281 11.589844 8.113281 11.601562 C 8.113281 11.609375 8.070312 11.617188 8.015625 11.617188 C 7.957031 11.617188 7.921875 11.621094 7.914062 11.636719 C 7.90625 11.664062 6.878906 11.664062 6.867188 11.636719 C 6.863281 11.621094 6.828125 11.617188 6.765625 11.617188 C 6.714844 11.617188 6.671875 11.609375 6.671875 11.601562 C 6.671875 11.589844 6.644531 11.585938 6.609375 11.585938 C 6.574219 11.585938 6.542969 11.578125 6.542969 11.566406 C 6.542969 11.558594 6.515625 11.550781 6.480469 11.550781 C 6.445312 11.550781 6.414062 11.542969 6.414062 11.535156 C 6.414062 11.527344 6.398438 11.519531 6.378906 11.519531 C 6.355469 11.519531 6.332031 11.511719 6.328125 11.503906 C 6.324219 11.496094 6.300781 11.488281 6.28125 11.488281 C 6.257812 11.488281 6.238281 11.480469 6.230469 11.472656 C 6.226562 11.464844 6.203125 11.457031 6.183594 11.457031 C 6.160156 11.457031 6.144531 11.449219 6.144531 11.441406 C 6.144531 11.429688 6.125 11.425781 6.105469 11.425781 C 6.082031 11.425781 6.0625 11.417969 6.0625 11.40625 C 6.0625 11.398438 6.046875 11.390625 6.023438 11.390625 C 6.003906 11.390625 5.984375 11.386719 5.984375 11.375 C 5.984375 11.367188 5.96875 11.359375 5.953125 11.359375 C 5.933594 11.359375 5.921875 11.351562 5.921875 11.34375 C 5.921875 11.335938 5.90625 11.328125 5.886719 11.328125 C 5.871094 11.328125 5.855469 11.320312 5.855469 11.3125 C 5.855469 11.304688 5.839844 11.296875 5.824219 11.296875 C 5.804688 11.296875 5.792969 11.289062 5.792969 11.28125 C 5.792969 11.269531 5.777344 11.265625 5.761719 11.265625 C 5.742188 11.265625 5.726562 11.257812 5.726562 11.246094 C 5.726562 11.238281 5.714844 11.230469 5.695312 11.230469 C 5.679688 11.230469 5.664062 11.226562 5.664062 11.21875 C 5.664062 11.210938 5.640625 11.195312 5.609375 11.183594 C 5.578125 11.171875 5.550781 11.15625 5.550781 11.148438 C 5.550781 11.140625 5.542969 11.136719 5.535156 11.136719 C 5.515625 11.136719 5.339844 11.019531 5.332031 11.003906 C 5.328125 10.996094 5.3125 10.992188 5.296875 10.992188 C 5.285156 10.992188 5.261719 10.976562 5.246094 10.960938 C 5.234375 10.941406 5.21875 10.929688 5.207031 10.929688 C 5.164062 10.929688 4.480469 10.25 4.480469 10.207031 C 4.480469 10.199219 4.457031 10.167969 4.433594 10.140625 C 4.40625 10.113281 4.382812 10.082031 4.382812 10.070312 C 4.382812 10.058594 4.378906 10.046875 4.367188 10.046875 C 4.359375 10.046875 4.347656 10.03125 4.34375 10.011719 C 4.335938 9.992188 4.3125 9.945312 4.289062 9.910156 C 4.265625 9.875 4.242188 9.835938 4.234375 9.824219 C 4.230469 9.8125 4.203125 9.765625 4.175781 9.71875 C 4.148438 9.675781 4.121094 9.628906 4.117188 9.613281 C 4.113281 9.597656 4.101562 9.585938 4.09375 9.585938 C 4.085938 9.585938 4.078125 9.566406 4.078125 9.546875 C 4.078125 9.523438 4.074219 9.5 4.0625 9.496094 C 4.054688 9.492188 4.046875 9.472656 4.046875 9.453125 C 4.046875 9.4375 4.039062 9.425781 4.03125 9.425781 C 4.023438 9.425781 4.015625 9.410156 4.015625 9.390625 C 4.015625 9.375 4.007812 9.359375 4 9.359375 C 3.992188 9.359375 3.984375 9.34375 3.984375 9.328125 C 3.984375 9.308594 3.976562 9.28125 3.964844 9.261719 C 3.925781 9.183594 3.921875 9.167969 3.921875 9.136719 C 3.921875 9.117188 3.914062 9.105469 3.902344 9.105469 C 3.894531 9.105469 3.886719 9.078125 3.886719 9.046875 C 3.886719 9.015625 3.878906 8.992188 3.871094 8.992188 C 3.863281 8.992188 3.855469 8.96875 3.855469 8.945312 C 3.855469 8.917969 3.847656 8.894531 3.839844 8.894531 C 3.832031 8.894531 3.824219 8.859375 3.824219 8.816406 C 3.824219 8.773438 3.816406 8.734375 3.808594 8.734375 C 3.800781 8.734375 3.792969 8.699219 3.792969 8.65625 C 3.792969 8.613281 3.785156 8.574219 3.777344 8.574219 C 3.765625 8.574219 3.761719 8.53125 3.761719 8.472656 C 3.761719 8.414062 3.753906 8.367188 3.742188 8.367188 C 3.734375 8.367188 3.726562 8.238281 3.726562 8.007812 C 3.726562 7.785156 3.734375 7.644531 3.742188 7.640625 C 3.753906 7.632812 3.761719 7.582031 3.761719 7.527344 C 3.761719 7.46875 3.765625 7.425781 3.777344 7.425781 C 3.785156 7.425781 3.792969 7.386719 3.792969 7.34375 C 3.792969 7.300781 3.800781 7.265625 3.808594 7.265625 C 3.816406 7.265625 3.824219 7.226562 3.824219 7.183594 C 3.824219 7.140625 3.832031 7.105469 3.839844 7.105469 C 3.847656 7.105469 3.855469 7.082031 3.855469 7.054688 C 3.855469 7.03125 3.863281 7.007812 3.871094 7.007812 C 3.878906 7.007812 3.886719 6.984375 3.886719 6.953125 C 3.886719 6.921875 3.894531 6.894531 3.902344 6.894531 C 3.914062 6.894531 3.921875 6.882812 3.921875 6.863281 C 3.921875 6.847656 3.925781 6.816406 3.9375 6.800781 C 3.945312 6.78125 3.960938 6.753906 3.96875 6.734375 C 3.976562 6.71875 3.984375 6.691406 3.984375 6.671875 C 3.984375 6.65625 3.992188 6.640625 4 6.640625 C 4.007812 6.640625 4.015625 6.625 4.015625 6.609375 C 4.015625 6.589844 4.023438 6.574219 4.03125 6.574219 C 4.039062 6.574219 4.046875 6.5625 4.046875 6.546875 C 4.046875 6.527344 4.054688 6.507812 4.0625 6.503906 C 4.074219 6.5 4.078125 6.476562 4.078125 6.453125 C 4.078125 6.433594 4.085938 6.414062 4.09375 6.414062 C 4.097656 6.414062 4.113281 6.394531 4.125 6.363281 C 4.140625 6.335938 4.167969 6.28125 4.191406 6.246094 C 4.214844 6.210938 4.242188 6.164062 4.257812 6.136719 C 4.269531 6.109375 4.289062 6.078125 4.300781 6.066406 C 4.3125 6.050781 4.332031 6.023438 4.339844 5.996094 C 4.347656 5.972656 4.363281 5.953125 4.371094 5.953125 C 4.378906 5.953125 4.382812 5.941406 4.382812 5.929688 C 4.382812 5.917969 4.40625 5.886719 4.433594 5.859375 C 4.457031 5.832031 4.480469 5.800781 4.480469 5.792969 C 4.480469 5.75 5.164062 5.070312 5.207031 5.070312 C 5.214844 5.070312 5.230469 5.058594 5.246094 5.042969 C 5.261719 5.027344 5.285156 5.007812 5.304688 5.003906 C 5.324219 4.996094 5.351562 4.980469 5.371094 4.964844 C 5.410156 4.929688 5.488281 4.878906 5.523438 4.871094 C 5.539062 4.863281 5.550781 4.855469 5.550781 4.847656 C 5.550781 4.84375 5.578125 4.828125 5.609375 4.816406 C 5.640625 4.804688 5.664062 4.789062 5.664062 4.78125 C 5.664062 4.773438 5.679688 4.769531 5.695312 4.769531 C 5.714844 4.769531 5.726562 4.761719 5.726562 4.753906 C 5.726562 4.742188 5.742188 4.734375 5.761719 4.734375 C 5.777344 4.734375 5.792969 4.730469 5.792969 4.722656 C 5.792969 4.710938 5.871094 4.671875 5.898438 4.671875 C 5.910156 4.671875 5.921875 4.664062 5.921875 4.65625 C 5.921875 4.648438 5.933594 4.640625 5.953125 4.640625 C 5.96875 4.640625 5.984375 4.632812 5.984375 4.625 C 5.984375 4.613281 6.003906 4.609375 6.023438 4.609375 C 6.046875 4.609375 6.0625 4.601562 6.0625 4.59375 C 6.0625 4.582031 6.082031 4.574219 6.105469 4.574219 C 6.125 4.574219 6.144531 4.570312 6.144531 4.558594 C 6.144531 4.550781 6.160156 4.542969 6.183594 4.542969 C 6.203125 4.542969 6.226562 4.535156 6.230469 4.527344 C 6.238281 4.519531 6.257812 4.511719 6.28125 4.511719 C 6.300781 4.511719 6.320312 4.503906 6.320312 4.496094 C 6.320312 4.488281 6.339844 4.480469 6.367188 4.480469 C 6.394531 4.480469 6.414062 4.472656 6.414062 4.464844 C 6.414062 4.457031 6.445312 4.449219 6.480469 4.449219 C 6.515625 4.449219 6.542969 4.441406 6.542969 4.433594 C 6.542969 4.421875 6.574219 4.414062 6.609375 4.414062 C 6.644531 4.414062 6.671875 4.410156 6.671875 4.398438 C 6.671875 4.390625 6.710938 4.382812 6.757812 4.382812 C 6.804688 4.382812 6.847656 4.378906 6.855469 4.367188 C 6.890625 4.335938 7.9375 4.335938 7.949219 4.367188 M 2.015625 5.96875 C 2.015625 5.976562 2.003906 5.984375 1.988281 5.984375 C 1.972656 5.984375 1.949219 6 1.9375 6.015625 C 1.921875 6.035156 1.902344 6.046875 1.890625 6.046875 C 1.882812 6.046875 1.871094 6.054688 1.871094 6.0625 C 1.871094 6.070312 1.855469 6.09375 1.839844 6.113281 C 1.820312 6.132812 1.800781 6.171875 1.796875 6.195312 C 1.792969 6.21875 1.78125 6.238281 1.773438 6.238281 C 1.765625 6.238281 1.761719 6.285156 1.761719 6.34375 C 1.761719 6.402344 1.765625 6.449219 1.777344 6.449219 C 1.785156 6.449219 1.792969 6.460938 1.792969 6.472656 C 1.792969 6.503906 1.929688 6.640625 1.960938 6.640625 C 1.972656 6.640625 1.984375 6.648438 1.984375 6.65625 C 1.984375 6.664062 2.003906 6.671875 2.03125 6.671875 C 2.058594 6.671875 2.078125 6.679688 2.078125 6.6875 C 2.078125 6.695312 2.101562 6.703125 2.128906 6.703125 C 2.15625 6.703125 2.175781 6.710938 2.175781 6.71875 C 2.175781 6.730469 2.199219 6.734375 2.222656 6.734375 C 2.25 6.734375 2.273438 6.742188 2.273438 6.753906 C 2.273438 6.761719 2.296875 6.769531 2.328125 6.769531 C 2.355469 6.769531 2.386719 6.773438 2.390625 6.785156 C 2.398438 6.792969 2.441406 6.800781 2.488281 6.800781 C 2.535156 6.800781 2.574219 6.792969 2.574219 6.785156 C 2.574219 6.773438 2.589844 6.769531 2.609375 6.769531 C 2.625 6.769531 2.640625 6.761719 2.640625 6.753906 C 2.640625 6.742188 2.652344 6.734375 2.664062 6.734375 C 2.695312 6.734375 2.800781 6.632812 2.800781 6.601562 C 2.800781 6.585938 2.808594 6.574219 2.816406 6.574219 C 2.824219 6.574219 2.832031 6.5625 2.832031 6.546875 C 2.832031 6.527344 2.839844 6.507812 2.847656 6.503906 C 2.855469 6.5 2.863281 6.460938 2.863281 6.425781 C 2.863281 6.386719 2.855469 6.347656 2.847656 6.34375 C 2.839844 6.339844 2.832031 6.316406 2.832031 6.289062 C 2.832031 6.265625 2.820312 6.238281 2.800781 6.222656 C 2.78125 6.210938 2.769531 6.191406 2.769531 6.179688 C 2.769531 6.171875 2.746094 6.148438 2.71875 6.132812 C 2.695312 6.117188 2.671875 6.097656 2.671875 6.09375 C 2.671875 6.085938 2.65625 6.078125 2.640625 6.078125 C 2.621094 6.078125 2.609375 6.074219 2.609375 6.066406 C 2.609375 6.058594 2.582031 6.046875 2.550781 6.042969 C 2.519531 6.035156 2.472656 6.027344 2.441406 6.023438 C 2.410156 6.015625 2.382812 6.007812 2.382812 6 C 2.382812 5.992188 2.363281 5.984375 2.335938 5.984375 C 2.308594 5.984375 2.289062 5.976562 2.289062 5.96875 C 2.289062 5.957031 2.230469 5.953125 2.152344 5.953125 C 2.070312 5.953125 2.015625 5.957031 2.015625 5.96875 M 2.273438 9.246094 C 2.273438 9.257812 2.25 9.265625 2.226562 9.265625 C 2.199219 9.265625 2.171875 9.269531 2.167969 9.28125 C 2.164062 9.289062 2.132812 9.296875 2.101562 9.296875 C 2.074219 9.296875 2.046875 9.304688 2.046875 9.3125 C 2.046875 9.320312 2.027344 9.328125 2 9.328125 C 1.972656 9.328125 1.953125 9.335938 1.953125 9.34375 C 1.953125 9.351562 1.941406 9.359375 1.929688 9.359375 C 1.902344 9.359375 1.792969 9.464844 1.792969 9.492188 C 1.792969 9.507812 1.785156 9.519531 1.773438 9.523438 C 1.75 9.53125 1.75 9.84375 1.773438 9.851562 C 1.785156 9.855469 1.792969 9.867188 1.792969 9.882812 C 1.792969 9.914062 1.894531 10.015625 1.925781 10.015625 C 1.941406 10.015625 1.953125 10.023438 1.953125 10.03125 C 1.953125 10.039062 1.984375 10.050781 2.027344 10.054688 C 2.230469 10.082031 2.257812 10.082031 2.257812 10.066406 C 2.257812 10.054688 2.277344 10.046875 2.304688 10.046875 C 2.332031 10.046875 2.351562 10.039062 2.351562 10.03125 C 2.351562 10.023438 2.375 10.015625 2.40625 10.015625 C 2.4375 10.015625 2.464844 10.007812 2.472656 10 C 2.476562 9.992188 2.503906 9.984375 2.527344 9.984375 C 2.554688 9.984375 2.574219 9.976562 2.574219 9.96875 C 2.574219 9.960938 2.589844 9.953125 2.609375 9.953125 C 2.625 9.953125 2.640625 9.945312 2.640625 9.941406 C 2.640625 9.933594 2.660156 9.917969 2.6875 9.90625 C 2.714844 9.894531 2.742188 9.863281 2.753906 9.839844 C 2.765625 9.8125 2.78125 9.792969 2.789062 9.792969 C 2.792969 9.792969 2.800781 9.769531 2.800781 9.742188 C 2.800781 9.71875 2.808594 9.695312 2.816406 9.695312 C 2.824219 9.695312 2.832031 9.664062 2.832031 9.625 C 2.832031 9.585938 2.824219 9.550781 2.816406 9.550781 C 2.808594 9.550781 2.800781 9.53125 2.800781 9.503906 C 2.800781 9.476562 2.792969 9.457031 2.785156 9.457031 C 2.773438 9.457031 2.769531 9.445312 2.769531 9.429688 C 2.769531 9.398438 2.664062 9.296875 2.632812 9.296875 C 2.617188 9.296875 2.609375 9.289062 2.609375 9.28125 C 2.609375 9.269531 2.59375 9.265625 2.574219 9.265625 C 2.558594 9.265625 2.542969 9.257812 2.542969 9.246094 C 2.542969 9.238281 2.488281 9.230469 2.40625 9.230469 C 2.328125 9.230469 2.273438 9.238281 2.273438 9.246094 M 4.175781 11.839844 C 4.175781 11.847656 4.164062 11.855469 4.152344 11.855469 C 4.125 11.855469 3.921875 12.054688 3.921875 12.082031 C 3.921875 12.089844 3.898438 12.117188 3.871094 12.148438 C 3.84375 12.175781 3.824219 12.203125 3.824219 12.210938 C 3.824219 12.21875 3.808594 12.238281 3.792969 12.257812 C 3.734375 12.324219 3.71875 12.640625 3.777344 12.640625 C 3.785156 12.640625 3.792969 12.652344 3.792969 12.664062 C 3.792969 12.695312 3.863281 12.769531 3.894531 12.769531 C 3.910156 12.769531 3.921875 12.773438 3.921875 12.785156 C 3.921875 12.792969 3.933594 12.800781 3.953125 12.800781 C 3.96875 12.800781 3.984375 12.808594 3.984375 12.816406 C 3.984375 12.847656 4.199219 12.835938 4.273438 12.796875 C 4.355469 12.753906 4.382812 12.730469 4.382812 12.703125 C 4.382812 12.691406 4.40625 12.664062 4.433594 12.640625 C 4.457031 12.617188 4.480469 12.585938 4.480469 12.574219 C 4.480469 12.566406 4.5 12.535156 4.527344 12.511719 C 4.554688 12.488281 4.574219 12.457031 4.574219 12.445312 C 4.574219 12.433594 4.589844 12.414062 4.609375 12.398438 C 4.644531 12.375 4.660156 12.046875 4.625 12.046875 C 4.613281 12.046875 4.609375 12.035156 4.609375 12.015625 C 4.609375 12 4.601562 11.984375 4.59375 11.984375 C 4.582031 11.984375 4.574219 11.972656 4.574219 11.960938 C 4.574219 11.949219 4.5625 11.929688 4.546875 11.921875 C 4.527344 11.910156 4.503906 11.894531 4.492188 11.882812 C 4.480469 11.871094 4.453125 11.855469 4.4375 11.84375 C 4.394531 11.820312 4.175781 11.816406 4.175781 11.839844 M 10.238281 11.871094 C 10.238281 11.878906 10.230469 11.886719 10.214844 11.886719 C 10.179688 11.886719 10.078125 11.992188 10.078125 12.03125 C 10.078125 12.046875 10.074219 12.066406 10.0625 12.070312 C 10.054688 12.078125 10.046875 12.136719 10.046875 12.207031 C 10.046875 12.277344 10.054688 12.339844 10.0625 12.34375 C 10.074219 12.347656 10.078125 12.363281 10.078125 12.378906 C 10.078125 12.390625 10.101562 12.421875 10.128906 12.449219 C 10.15625 12.476562 10.175781 12.507812 10.175781 12.515625 C 10.175781 12.523438 10.199219 12.550781 10.222656 12.578125 C 10.25 12.605469 10.273438 12.632812 10.273438 12.640625 C 10.273438 12.667969 10.40625 12.800781 10.433594 12.800781 C 10.449219 12.800781 10.464844 12.808594 10.472656 12.816406 C 10.476562 12.824219 10.53125 12.832031 10.59375 12.832031 C 10.65625 12.832031 10.703125 12.824219 10.703125 12.816406 C 10.703125 12.808594 10.722656 12.800781 10.742188 12.800781 C 10.789062 12.800781 10.902344 12.691406 10.9375 12.613281 C 10.964844 12.550781 10.96875 12.335938 10.945312 12.335938 C 10.933594 12.335938 10.929688 12.320312 10.929688 12.304688 C 10.929688 12.285156 10.921875 12.273438 10.910156 12.273438 C 10.902344 12.273438 10.894531 12.261719 10.894531 12.246094 C 10.894531 12.230469 10.875 12.199219 10.847656 12.175781 C 10.820312 12.152344 10.800781 12.121094 10.800781 12.113281 C 10.800781 12.101562 10.777344 12.074219 10.753906 12.046875 C 10.726562 12.023438 10.703125 11.996094 10.703125 11.984375 C 10.703125 11.960938 10.648438 11.910156 10.605469 11.894531 C 10.589844 11.890625 10.574219 11.878906 10.574219 11.871094 C 10.574219 11.863281 10.5 11.855469 10.40625 11.855469 C 10.308594 11.855469 10.238281 11.863281 10.238281 11.871094 M 7.265625 12.816406 C 7.265625 12.824219 7.242188 12.832031 7.214844 12.832031 C 7.191406 12.832031 7.167969 12.839844 7.167969 12.847656 C 7.167969 12.855469 7.160156 12.863281 7.152344 12.863281 C 6.972656 12.863281 6.9375 13.613281 7.105469 13.777344 C 7.132812 13.800781 7.171875 13.824219 7.1875 13.824219 C 7.203125 13.824219 7.214844 13.832031 7.214844 13.839844 C 7.214844 13.847656 7.277344 13.855469 7.367188 13.855469 C 7.457031 13.855469 7.519531 13.847656 7.519531 13.839844 C 7.519531 13.832031 7.53125 13.824219 7.546875 13.824219 C 7.570312 13.824219 7.609375 13.789062 7.675781 13.707031 C 7.6875 13.691406 7.695312 13.667969 7.695312 13.648438 C 7.695312 13.628906 7.703125 13.617188 7.710938 13.617188 C 7.722656 13.617188 7.726562 13.511719 7.726562 13.335938 C 7.726562 13.160156 7.722656 13.054688 7.710938 13.054688 C 7.703125 13.054688 7.695312 13.042969 7.695312 13.023438 C 7.695312 13.007812 7.6875 12.992188 7.679688 12.992188 C 7.671875 12.992188 7.664062 12.980469 7.664062 12.960938 C 7.664062 12.933594 7.597656 12.863281 7.566406 12.863281 C 7.558594 12.863281 7.550781 12.855469 7.550781 12.847656 C 7.550781 12.839844 7.535156 12.832031 7.511719 12.832031 C 7.492188 12.832031 7.46875 12.824219 7.464844 12.816406 C 7.457031 12.808594 7.410156 12.800781 7.359375 12.800781 C 7.304688 12.800781 7.265625 12.808594 7.265625 12.816406 "/>
</g>
</svg>
